<?xml version="1.0" encoding="UTF-8"?><svg id="Layer_2" xmlns="http://www.w3.org/2000/svg" viewBox="0 0 1044.03 419.75"><defs><style>.cls-1{fill:#8089dc;}.cls-2{fill:#282931;}</style></defs><path class="cls-2" d="m12.85,125.17v270.43c0,5.05,4.09,9.14,9.14,9.14h88.35c5.05,0,9.14-4.09,9.14-9.14V21.91c0-8.08-9.71-12.18-15.5-6.55L28.07,89.15c-9.73,9.46-15.22,22.45-15.22,36.03Z"/><path class="cls-1" d="m263.03,298.42h-117.72c-5.05,0-9.14,4.09-9.14,9.14v88.05c0,5.05,4.09,9.14,9.14,9.14h19.31c7.41,0,14.52-2.89,19.83-8.05l84.94-82.58c5.88-5.72,1.83-15.69-6.37-15.69Z"/><path class="cls-2" d="m589.29,271.85c-15.1,16.76-39.68,25.26-64.79,18.22-23.88-6.7-41.92-27.4-45.47-51.94-5.75-39.83,24.98-73.62,63.33-73.62,35.23,0,64.02,28.51,64.02,64.02,0,3.39-.21,6.58-.81,9.91-.16.88-.96,1.55-1.86,1.55h-85.76c-1.29,0-2.21,1.34-1.68,2.52,1.54,3.44,3.47,6.51,5.96,9.22,5.87,6.43,13.42,9.79,21.53,9.79,7.04,0,14.09-2.92,19.54-7.86.69-.62,1.69-.73,2.47-.21l23.13,15.51c.97.65,1.16,2.03.39,2.89Zm-19.24-53.11c1.24,0,2.17-1.23,1.75-2.39-1.48-4.14-3.74-8.02-6.8-11.31-5.59-6.15-13.42-9.51-21.25-9.51s-15.66,3.36-21.53,9.51c-2.8,3.27-5.02,7.13-6.65,11.25-.47,1.17.45,2.45,1.71,2.45h52.76Z"/><path class="cls-2" d="m670.81,179.73c.44,1.19,1.94,1.42,2.79.48,9.19-10.19,24.1-14.59,39.01-14.59,6.36,0,12.71.93,18.65,2.77.95.29,1.41,1.38,1.01,2.28l-12.32,27.9c-.36.81-1.28,1.15-2.1.83-19.86-7.72-39.58,4.34-43.23,23.06-.02.13-.04.26-.04.39v64.69c0,.91-.74,1.65-1.65,1.65h-31.65c-.91,0-1.65-.74-1.65-1.65v-117.2c0-.91.74-1.65,1.65-1.65h24.32c.69,0,1.31.43,1.55,1.08l3.66,9.95Z"/><path class="cls-2" d="m989.47,231.54l38.88,54.79c.85,1.2,0,2.87-1.48,2.87h-36.09c-.59,0-1.14-.28-1.48-.76l-20.98-29.42c-.7-.98-2.15-1.02-2.9-.07l-23.4,29.57c-.34.43-.87.69-1.42.69h-33.35c-1.47,0-2.33-1.66-1.48-2.87l38.88-54.79c.45-.63.45-1.48,0-2.11l-41.37-57.87c-.86-1.2,0-2.87,1.48-2.87h36.08c.59,0,1.14.29,1.48.77l23.15,32.66c.72,1.02,2.23,1.02,2.96,0l23.41-32.68c.34-.48.89-.76,1.48-.76h36.08c1.48,0,2.34,1.67,1.48,2.87l-41.37,57.87c-.45.63-.45,1.47,0,2.11Z"/><path class="cls-2" d="m440.45,250.06h-68.32c-1.28,0-2.33-1.04-2.33-2.33V96.93c0-1.97-1.76-2.01-3.16-.62l-28.16,28.63c-5.02,5.1-7.83,11.97-7.83,19.12v142.54c0,1.28,1.04,2.33,2.33,2.33h107.47c1.28,0,2.33-1.04,2.33-2.33v-34.21c0-1.28-1.04-2.33-2.33-2.33Z"/><path class="cls-2" d="m863.89,271.85c-15.1,16.76-39.68,25.26-64.79,18.22-23.88-6.7-41.92-27.4-45.47-51.94-5.75-39.83,24.98-73.62,63.33-73.62,35.23,0,64.02,28.51,64.02,64.02,0,3.39-.21,6.58-.81,9.91-.16.88-.96,1.55-1.86,1.55h-85.76c-1.29,0-2.21,1.34-1.68,2.52,1.54,3.44,3.47,6.51,5.96,9.22,5.87,6.43,13.42,9.79,21.53,9.79,7.04,0,14.09-2.92,19.54-7.86.69-.62,1.69-.73,2.47-.21l23.13,15.51c.97.65,1.16,2.03.39,2.89Zm-19.24-53.11c1.24,0,2.17-1.23,1.75-2.39-1.48-4.14-3.74-8.02-6.8-11.31-5.59-6.15-13.42-9.51-21.25-9.51s-15.66,3.36-21.53,9.51c-2.8,3.27-5.02,7.13-6.65,11.25-.47,1.17.45,2.45,1.71,2.45h52.76Z"/></svg>